<?xml version="1.0" encoding="UTF-8"?>
<!DOCTYPE svg PUBLIC "-//W3C//DTD SVG 1.1//EN" "http://www.w3.org/Graphics/SVG/1.1/DTD/svg11.dtd">
<!-- Creator: CorelDRAW X7 -->
<svg xmlns="http://www.w3.org/2000/svg" xml:space="preserve" width="31.402mm" height="5.516mm" version="1.1" style="shape-rendering:geometricPrecision; text-rendering:geometricPrecision; image-rendering:optimizeQuality; fill-rule:evenodd; clip-rule:evenodd"
viewBox="0 0 3140 552"
 xmlns:xlink="http://www.w3.org/1999/xlink">
 <defs>
  <style type="text/css">
   <![CDATA[
    .fil0 {fill:#10C649}
   ]]>
  </style>
 </defs>
 <g id="Layer_x0020_1">
  <metadata id="CorelCorpID_0Corel-Layer"/>
  <path class="fil0" d="M0 393c0,227 385,134 483,72 36,-22 62,-44 85,-65 127,-117 145,-144 243,-29 360,427 677,-30 775,-97 67,48 73,100 173,168 363,220 497,66 700,-89 97,-73 130,-93 216,-4 80,83 198,191 374,190 74,-1 91,-55 91,-115 0,-22 -3,-36 -8,-46 -28,-47 -122,11 -286,-138 -202,-220 -283,-184 -528,12 -389,312 -571,-253 -732,-252 -173,1 -337,713 -734,100 -111,-171 -240,-50 -333,81 -156,218 -325,132 -448,142 -55,4 -71,27 -71,70z"/>
 </g>
</svg>
